<?xml version="1.0" encoding="utf-8"?>
<!-- Generator: Adobe Illustrator 18.0.0, SVG Export Plug-In . SVG Version: 6.00 Build 0)  -->
<!DOCTYPE svg PUBLIC "-//W3C//DTD SVG 1.1//EN" "http://www.w3.org/Graphics/SVG/1.1/DTD/svg11.dtd">
<svg version="1.1" xmlns="http://www.w3.org/2000/svg" xmlns:xlink="http://www.w3.org/1999/xlink" x="0px" y="0px"
	 viewBox="0 0 128 128" enable-background="new 0 0 128 128" xml:space="preserve">
<g id="mypin">
	<path fill="none" stroke="#000000" stroke-miterlimit="10" d="M113.2,111.6c9.3-10.9,15.3-44.7,5.1-55.6
		c-12.8-13.6,1.5-39.8-5.1-46.6c-3.1-3.3-6.9-4-12.2,0c-6.2,6.8,7.3,33-4.8,46.6c-9.7,10.9-4,44.7,4.8,55.6
		C105.7,113.3,109.8,113.2,113.2,111.6z"/>
	<path fill="#FFFFFF" stroke="#000000" stroke-miterlimit="10" d="M104.2,112.7c9.3-10.9,15.3-44.7,5.1-55.6
		c-12.8-13.6,1.5-39.8-5.1-46.6c-3.1-3.3-6.9-4-12.2,0c-6.2,6.8,7.3,33-4.8,46.6c-9.7,10.9-4,44.7,4.8,55.6
		C96.7,114.4,100.7,114.3,104.2,112.7z"/>
	<path fill="#FFFFFF" stroke="#000000" stroke-miterlimit="10" d="M96.3,113.9c9.3-10.9,15.3-44.7,5.1-55.6
		c-9-9.6-4.6-25.3-3.5-36.2c0.5-4.6,0.4-8.4-1.6-10.4c-3.1-3.3-6.9-4-12.2,0c-1.9,2.1-1.9,5.9-1.5,10.6c0.1,1.1,0.2,2.2,0.4,3.4
		c0.3,2.2,0.6,4.6,0.9,7c1.1,9,1.4,18.9-4.6,25.6c-9.7,10.9-4,44.7,4.8,55.6C88.8,115.5,92.8,115.5,96.3,113.9z"/>
</g>
<g id="text">
	<text transform="matrix(0.9941 0 0 1 2.8335 36.9492)" fill="#F7931E" font-family="'BerlinSansFBDemi-Bold'" font-size="13.6218">Butterfinge</text>
	
		<text transform="matrix(0.9941 0 0 1 72.2559 36.9492)" fill="#F7931E" font-family="'BerlinSansFBDemi-Bold'" font-size="13.6218" letter-spacing="-2">r</text>
	
		<text transform="matrix(0.8886 0.4457 -0.5425 1.0816 75.4639 37.8027)" fill="#F7931E" font-family="'BerlinSansFBDemi-Bold'" font-size="13.6218" letter-spacing="6">s</text>
	<text transform="matrix(0.9941 0 0 1 32.5454 49.625)" fill="#F7931E" font-family="'BerlinSansFBDemi-Bold'" font-size="13.6218">Bowli</text>
	
		<text transform="matrix(0.9941 0 0 1 65.9512 49.625)" fill="#F7931E" font-family="'BerlinSansFBDemi-Bold'" font-size="13.6218" letter-spacing="-2">n</text>
	
		<text transform="matrix(0.8313 0.5453 -0.5485 0.8362 72.1592 49.6206)" fill="#F7931E" font-family="'BerlinSansFBDemi-Bold'" font-size="13.6218" letter-spacing="6">g</text>
</g>
<g id="ball">
	<g>
		
			<radialGradient id="SVGID_1_" cx="39.0353" cy="83.0936" r="48.6086" gradientTransform="matrix(1.1285 0 0 1.1351 -3.1854 -13.9432)" gradientUnits="userSpaceOnUse">
			<stop  offset="0" style="stop-color:#FFFFFF"/>
			<stop  offset="1.668608e-002" style="stop-color:#F3F8FC"/>
			<stop  offset="8.592275e-002" style="stop-color:#C8E0EF"/>
			<stop  offset="0.1529" style="stop-color:#A6CCE6"/>
			<stop  offset="0.2161" style="stop-color:#8DBEDF"/>
			<stop  offset="0.274" style="stop-color:#7EB6DA"/>
			<stop  offset="0.3217" style="stop-color:#79B3D9"/>
			<stop  offset="0.6461" style="stop-color:#536FAD"/>
			<stop  offset="0.7673" style="stop-color:#846AA8"/>
			<stop  offset="0.9944" style="stop-color:#E8619D"/>
		</radialGradient>
		<ellipse opacity="0.4" fill="url(#SVGID_1_)" cx="48.3" cy="94.3" rx="26.7" ry="29.9"/>
		<ellipse fill="none" stroke="#000102" stroke-miterlimit="10" cx="48.3" cy="94.3" rx="26.7" ry="29.9"/>
	</g>
</g>
<g id="butter">
	<g>
		<path fill="#FFFF00" d="M40.6,65.1c10.8-2.3,19.7-0.1,26.1,7.6c11.3,10-6.4,21.5-5.5,9c-5.3,9-7.4-10.7-11.4-11.2
			c-3.1,1.9-5.7-1.1-7.4,4.1s-9.1-5.8-8.7-6"/>
		<path fill="#FFFF00" d="M40.6,65.1c1.2-0.3,2.3-0.5,3.5-0.7c0.6-0.1,1.2-0.2,1.8-0.2c0.6-0.1,1.2-0.1,1.8-0.1c0.6,0,1.2,0,1.8,0
			c0.6,0,1.2,0,1.8,0.1c0.6,0,1.2,0.1,1.8,0.2c0.6,0.1,1.2,0.2,1.8,0.4c0.6,0.1,1.2,0.3,1.8,0.5c0.6,0.2,1.1,0.4,1.7,0.6
			c0.6,0.2,1.1,0.5,1.6,0.8c0.5,0.3,1,0.6,1.6,0.9l1.5,1.1c0.5,0.4,0.9,0.8,1.4,1.2l1.3,1.3l1.2,1.4l0,0c0.4,0.4,0.8,0.8,1.2,1.2
			c0.4,0.4,0.7,0.8,1,1.3c0.3,0.4,0.6,1,0.8,1.4c0.2,0.5,0.4,1,0.5,1.6c0.1,0.3,0.1,0.5,0.2,0.8c0.1,0.3,0.1,0.5,0.1,0.8
			c0,0.3,0,0.6,0,0.8c0,0.3,0,0.6-0.1,0.8c-0.1,0.5-0.3,1.1-0.5,1.6c-0.2,0.5-0.5,1-0.8,1.5c-0.3,0.5-0.7,0.9-1.1,1.3
			c-0.4,0.4-0.8,0.7-1.3,1c-0.5,0.3-1,0.5-1.5,0.7c-0.5,0.2-1.1,0.2-1.7,0.1c-0.6-0.1-1.1-0.4-1.6-0.8c-0.2-0.2-0.4-0.4-0.5-0.7
			c-0.2-0.3-0.3-0.5-0.4-0.8c-0.1-0.3-0.2-0.5-0.2-0.8c-0.1-0.3-0.1-0.6-0.1-0.8c-0.1-0.6,0-1.1,0-1.7l0.7,0.2
			c-0.2,0.4-0.4,0.8-0.7,1.1c-0.3,0.4-0.6,0.7-1,1c-0.4,0.3-0.9,0.5-1.5,0.5c-0.6,0-1-0.4-1.4-0.7c-0.4-0.3-0.6-0.7-0.9-1.1
			c-0.3-0.4-0.5-0.8-0.7-1.1c-0.4-0.8-0.8-1.6-1.1-2.3l-2-4.7c-0.3-0.8-0.7-1.5-1.1-2.2c-0.4-0.7-1-1.3-1.5-1.4l0.3-0.1
			c-0.4,0.3-0.9,0.5-1.4,0.6c-0.5,0.1-1,0.2-1.5,0.2c-1,0-1.9,0-2.5,0.3c-0.2,0.1-0.3,0.2-0.5,0.3c-0.1,0.1-0.3,0.3-0.4,0.4
			c-0.3,0.3-0.5,0.7-0.6,1.1c-0.2,0.4-0.3,0.8-0.5,1.3c-0.2,0.5-0.6,1-1.2,1.1c-0.6,0.1-1.1,0-1.6-0.3c-0.4-0.2-0.8-0.5-1.2-0.8
			c-0.7-0.6-1.4-1.3-2-2c-0.6-0.7-1.1-1.5-1.7-2.2c-0.3-0.4-0.5-0.8-0.7-1.2c-0.1-0.2-0.2-0.4-0.3-0.6l-0.1-0.3c0-0.1-0.1-0.2,0-0.4
			l0.1,0.1c0,0.1,0.2,0.4,0.3,0.6c0.1,0.2,0.2,0.4,0.4,0.6c0.3,0.4,0.5,0.7,0.8,1.1c0.6,0.7,1.2,1.4,1.8,2.1c0.6,0.7,1.3,1.3,2,1.8
			c0.4,0.3,0.7,0.5,1.1,0.7c0.4,0.2,0.8,0.2,1.1,0.2c0.3-0.1,0.6-0.4,0.7-0.7c0.1-0.3,0.3-0.8,0.5-1.3c0.2-0.4,0.4-0.9,0.7-1.3
			c0.1-0.2,0.3-0.4,0.5-0.6c0.2-0.2,0.4-0.3,0.7-0.5c0.5-0.3,1-0.4,1.5-0.4c0.5,0,0.9,0,1.4-0.1c0.4,0,0.9-0.1,1.3-0.2
			c0.4-0.1,0.8-0.3,1.1-0.5l0.2-0.1l0.2,0c0.6,0.1,1,0.4,1.4,0.8c0.3,0.4,0.6,0.7,0.8,1.1c0.5,0.8,0.9,1.5,1.2,2.3
			c0.7,1.6,1.3,3.2,1.9,4.7c0.3,0.8,0.7,1.5,1,2.3c0.2,0.4,0.4,0.7,0.6,1.1c0.2,0.3,0.5,0.6,0.7,0.9c0.3,0.2,0.6,0.4,0.9,0.4
			c0.3,0,0.6,0,0.9-0.3c0.3-0.2,0.6-0.5,0.8-0.8c0.3-0.3,0.5-0.7,0.7-1l0.8-1.1l0,1.4c0,0.5-0.1,1,0,1.6c0,0.3,0,0.5,0.1,0.8
			c0,0.3,0.1,0.5,0.2,0.7c0.1,0.2,0.2,0.5,0.3,0.7c0.1,0.2,0.3,0.4,0.4,0.6c0.3,0.3,0.7,0.6,1.2,0.7c0.5,0.1,1,0.1,1.5,0
			c0.5-0.1,1-0.3,1.4-0.6c0.5-0.3,0.9-0.6,1.3-0.9c0.4-0.4,0.7-0.8,1-1.2c0.3-0.4,0.6-0.9,0.8-1.4c0.2-0.5,0.4-1,0.5-1.5
			c0.1-0.3,0.1-0.5,0.1-0.8c0-0.3,0-0.5,0-0.8c0-0.3,0-0.5-0.1-0.8c0-0.3-0.1-0.5-0.2-0.8c-0.1-0.5-0.3-1-0.6-1.5
			c-0.3-0.5-0.5-0.9-0.8-1.3c-0.3-0.4-0.7-0.8-1-1.2c-0.4-0.4-0.8-0.7-1.2-1.1l0,0l0,0l-1.2-1.3L64,70.4l-1.4-1.1l-1.4-1
			c-0.5-0.3-1-0.6-1.5-0.9c-0.5-0.3-1-0.6-1.6-0.8c-0.5-0.2-1.1-0.5-1.6-0.7c-0.6-0.2-1.1-0.4-1.7-0.5c-0.6-0.1-1.1-0.3-1.7-0.4
			c-0.6-0.1-1.2-0.2-1.7-0.3c-0.6-0.1-1.2-0.2-1.8-0.2c-0.6,0-1.2-0.1-1.8-0.1c-0.6,0-1.2,0-1.8,0c-0.6,0-1.2,0-1.8,0.1
			C43,64.8,41.8,65,40.6,65.1L40.6,65.1z"/>
	</g>
</g>
</svg>
